<svg id="Слой_1" data-name="Слой 1" xmlns="http://www.w3.org/2000/svg" viewBox="0 0 53.75 25.53"><defs><style>.cls-1{fill:#c70c0f;}</style></defs><title>Безымянный-3</title><path class="cls-1" d="M-332.61,349.43a3.91,3.91,0,0,1-1.5.31,3.51,3.51,0,0,1-3.35-2.21h1.82a2,2,0,0,0,1.65.75,2.06,2.06,0,0,0,2-2.08l0,0a2.54,2.54,0,0,1-2.18,1.06,3,3,0,0,1-1.32-.3,3.57,3.57,0,0,1-2.09-3.31,3.46,3.46,0,0,1,3.4-3.49,2.46,2.46,0,0,1,2.12,1.05h0v-.82h1.55v5.43A3.62,3.62,0,0,1-332.61,349.43Zm-1.42-7.82a2,2,0,0,0-1.94,2,2,2,0,0,0,2,2.13,2,2,0,0,0,1.91-2.15A2,2,0,0,0-334,341.61Z" transform="translate(337.57 -338.15)"/><path class="cls-1" d="M-325.92,347.24a3.56,3.56,0,0,1-3.55-3.53,3.56,3.56,0,0,1,3.55-3.57,3.53,3.53,0,0,1,3.53,3.54A3.47,3.47,0,0,1-325.92,347.24Zm0-5.63a2.05,2.05,0,0,0-2,2.1,2,2,0,0,0,2,2.07,2,2,0,0,0,1.93-2.06A2,2,0,0,0-325.92,341.61Z" transform="translate(337.57 -338.15)"/><path class="cls-1" d="M-318.12,347.24a3.56,3.56,0,0,1-3.55-3.53,3.56,3.56,0,0,1,3.55-3.57,3.53,3.53,0,0,1,3.53,3.54A3.47,3.47,0,0,1-318.12,347.24Zm0-5.63a2.05,2.05,0,0,0-2,2.1,2,2,0,0,0,2,2.07,2,2,0,0,0,1.93-2.06A2,2,0,0,0-318.12,341.61Z" transform="translate(337.57 -338.15)"/><path class="cls-1" d="M-308.24,347v-.82h0a2.45,2.45,0,0,1-2.12,1,3.46,3.46,0,0,1-3.39-3.53,3.51,3.51,0,0,1,2.08-3.28,3.25,3.25,0,0,1,1.31-.29,2.53,2.53,0,0,1,2,.82v-2.81h1.6V347Zm-2-5.42a2.06,2.06,0,0,0-2,2,2,2,0,0,0,2,2.13,2,2,0,0,0,2-2.09A2,2,0,0,0-310.22,341.61Z" transform="translate(337.57 -338.15)"/><path class="cls-1" d="M-310.14,358a2.62,2.62,0,0,1-2.05-.85v2.86h-1.59v-8.88h1.46V352h0a2.63,2.63,0,0,1,2.16-1,3.4,3.4,0,0,1,3.34,3.53A3.44,3.44,0,0,1-310.14,358Zm-.18-5.63a2,2,0,0,0-2,2.08,2,2,0,0,0,1.16,1.9,1.87,1.87,0,0,0,.78.19,2,2,0,0,0,1.94-2.09A2,2,0,0,0-310.32,352.41Z" transform="translate(337.57 -338.15)"/><path class="cls-1" d="M-300.43,357.83V357a3.32,3.32,0,0,1-2.33,1,3.34,3.34,0,0,1-3.24-3.58,3.37,3.37,0,0,1,3.33-3.52,2.9,2.9,0,0,1,2,.8,2.1,2.1,0,0,1,.24.27h0v-.84H-299v6.66Zm-2-5.42a2,2,0,0,0-2,2.12,2,2,0,0,0,2,2.05,2,2,0,0,0,1.95-2.1A2,2,0,0,0-302.43,352.41Z" transform="translate(337.57 -338.15)"/><path class="cls-1" d="M-294.29,358a3.55,3.55,0,0,1-3.54-3.57,3.53,3.53,0,0,1,3.52-3.53,3.48,3.48,0,0,1,3.35,2.44h-1.8a1.65,1.65,0,0,0-1.55-1,1.94,1.94,0,0,0-1.93,2.08,2,2,0,0,0,2,2.09,1.73,1.73,0,0,0,1.47-.92h1.8A3.45,3.45,0,0,1-294.29,358Z" transform="translate(337.57 -338.15)"/><path class="cls-1" d="M-285.84,357.83l-2.25-3.12h0v3.12h-1.6V349h1.6v5.35h0l2.12-3.13h1.84l-2.4,3.26,2.71,3.4Z" transform="translate(337.57 -338.15)"/><path class="cls-1" d="M-317.4,343.69a.77.77,0,0,0-.73.79.75.75,0,0,0,.73.78.75.75,0,0,0,.72-.77A.77.77,0,0,0-317.4,343.69Z" transform="translate(337.57 -338.15)"/><path class="cls-1" d="M-325.42,343.69a.77.77,0,0,0-.73.79.75.75,0,0,0,.73.78.75.75,0,0,0,.72-.77A.77.77,0,0,0-325.42,343.69Z" transform="translate(337.57 -338.15)"/><path class="cls-1" d="M-303.17,353.05a.77.77,0,0,0-.73.79.75.75,0,0,0,.73.78.75.75,0,0,0,.73-.78A.77.77,0,0,0-303.17,353.05Z" transform="translate(337.57 -338.15)"/><path class="cls-1" d="M-311.1,353.05a.77.77,0,0,0-.73.79.75.75,0,0,0,.73.78.75.75,0,0,0,.73-.78A.77.77,0,0,0-311.1,353.05Z" transform="translate(337.57 -338.15)"/><path class="cls-1" d="M-317.58,351.5c-3.58,2-6.82,1.53-9.65-1.44l0-1.6c2.85,2.9,6.08,3.49,9.65,1.55Z" transform="translate(337.57 -338.15)"/><path class="cls-1" d="M-310.2,362.47c3.59,2,6.82,1.52,9.66-1.45l0-1.59c-2.84,2.9-6.08,3.49-9.65,1.55Z" transform="translate(337.57 -338.15)"/></svg>